<svg width="60" height="41" viewBox="0 0 60 41" fill="none" xmlns="http://www.w3.org/2000/svg">
<path d="M5 22.96C5.85742 10.1384 16.6982 0 29.9453 0C43.1924 0 54.0332 10.1384 54.8906 22.96H55V41L51.666 41.0001V22.6429H51.5723C50.8281 11.8301 41.4336 3.28003 29.9521 3.28003C18.4717 3.28003 9.07617 11.8301 8.33301 22.6429V41.0001L5 41V22.96Z" fill="#3C3835"/>
<path d="M3.33301 24.6C1.49219 24.6 0 26.0923 0 27.9333V37.6666C0 39.5076 1.49219 41 3.33301 41V24.6Z" fill="#3C3835"/>
<path d="M56.667 24.6C58.5078 24.6 60 26.0923 60 27.9333V37.6666C60 39.5076 58.5078 41 56.667 41V24.6Z" fill="#3C3835"/>
<path fill-rule="evenodd" clip-rule="evenodd" d="M39 25L24 33.6603V16.3397L39 25ZM27 21.5359L33 25L27 28.4641V21.5359Z" fill="#3C3835"/>
</svg>
