<svg width="18" height="18" viewBox="0 0 18 18" fill="none" xmlns="http://www.w3.org/2000/svg">
<path d="M7.62676 14H9.80986V8.95671H11.3357L11.5 7.2684H9.80986C9.80986 7.2684 9.80986 6.64069 9.80986 6.31602C9.80986 5.92641 9.90376 5.75325 10.3028 5.75325C10.6315 5.75325 11.4765 5.75325 11.4765 5.75325V4C11.4765 4 10.2324 4 9.97418 4C8.37793 4 7.62676 4.64935 7.62676 5.92641C7.62676 7.0303 7.62676 7.2684 7.62676 7.2684H6.5V8.97835H7.62676V14Z" fill="#231F20" fill-opacity="0.8"/>
<path fill-rule="evenodd" clip-rule="evenodd" d="M5 0C2.23877 0 0 2.23859 0 5V13C0 15.7614 2.23877 18 5 18H13C15.7612 18 18 15.7614 18 13V5C18 2.23859 15.7612 0 13 0H5ZM5 2C3.34326 2 2 3.34314 2 5V13C2 14.6569 3.34326 16 5 16H13C14.6567 16 16 14.6569 16 13V5C16 3.34314 14.6567 2 13 2H5Z" fill="#231F20" fill-opacity="0.8"/>
</svg>
