<svg width="22" height="44" viewBox="0 0 22 44" fill="none" xmlns="http://www.w3.org/2000/svg">
<mask id="path-1-inside-1" fill="white">
<path fill-rule="evenodd" clip-rule="evenodd" d="M14.5 15C18.6426 15 22 11.6422 22 7.5C22 3.35785 18.6426 0 14.5 0C10.3574 0 7 3.35785 7 7.5C7 11.6422 10.3574 15 14.5 15ZM14.5 12C16.9854 12 19 9.98529 19 7.5C19 5.01471 16.9854 3 14.5 3C12.0146 3 10 5.01471 10 7.5C10 9.98529 12.0146 12 14.5 12Z"/>
<path d="M2 35H0V44H22V17H7V30C7 32.7614 4.76142 35 2 35Z"/>
</mask>
<path d="M0 35V32H-3V35H0ZM0 44H-3V47H0V44ZM22 44V47H25V44H22ZM22 17H25V14H22V17ZM7 17V14H4V17H7ZM14.5 18C20.2995 18 25 13.2989 25 7.5H19C19 9.98541 16.9856 12 14.5 12V18ZM25 7.5C25 1.70111 20.2995 -3 14.5 -3V3C16.9856 3 19 5.01459 19 7.5H25ZM14.5 -3C8.70046 -3 4 1.70111 4 7.5H10C10 5.01459 12.0144 3 14.5 3V-3ZM4 7.5C4 13.2989 8.70046 18 14.5 18V12C12.0144 12 10 9.98541 10 7.5H4ZM14.5 15C18.6422 15 22 11.6421 22 7.5H16C16 8.32846 15.3285 9 14.5 9V15ZM22 7.5C22 3.35788 18.6422 0 14.5 0V6C15.3285 6 16 6.67154 16 7.5H22ZM14.5 0C10.3578 0 7 3.35788 7 7.5H13C13 6.67154 13.6715 6 14.5 6V0ZM7 7.5C7 11.6421 10.3578 15 14.5 15V9C13.6715 9 13 8.32846 13 7.5H7ZM2 32H0V38H2V32ZM-3 35V44H3V35H-3ZM0 47H22V41H0V47ZM25 44V17H19V44H25ZM22 14H7V20H22V14ZM4 17V30H10V17H4ZM4 30C4 31.1046 3.10457 32 2 32V38C6.41828 38 10 34.4183 10 30H4Z" fill="#3C3835" mask="url(#path-1-inside-1)"/>
</svg>
