<svg width="18" height="18" viewBox="0 0 18 18" fill="none" xmlns="http://www.w3.org/2000/svg">
<path fill-rule="evenodd" clip-rule="evenodd" d="M5 0C2.23877 0 0 2.23859 0 5V13C0 15.7614 2.23877 18 5 18H13C15.7612 18 18 15.7614 18 13V5C18 2.23859 15.7612 0 13 0H5ZM5 2C3.34326 2 2 3.34314 2 5V13C2 14.6569 3.34326 16 5 16H13C14.6567 16 16 14.6569 16 13V5C16 3.34314 14.6567 2 13 2H5Z" fill="#231F20" fill-opacity="0.8"/>
<path fill-rule="evenodd" clip-rule="evenodd" d="M9 13C11.209 13 13 11.2092 13 9C13 6.79083 11.209 5 9 5C6.79102 5 5 6.79083 5 9C5 11.2092 6.79102 13 9 13ZM9 11C10.1045 11 11 10.1046 11 9C11 7.89545 10.1045 7 9 7C7.89551 7 7 7.89545 7 9C7 10.1046 7.89551 11 9 11Z" fill="#231F20" fill-opacity="0.8"/>
<path d="M14 4C14 4.55228 13.5523 5 13 5C12.4477 5 12 4.55228 12 4C12 3.44772 12.4477 3 13 3C13.5523 3 14 3.44772 14 4Z" fill="#231F20" fill-opacity="0.8"/>
</svg>
