<svg width="25" height="41" viewBox="0 0 25 41" fill="none" xmlns="http://www.w3.org/2000/svg">
<path fill-rule="evenodd" clip-rule="evenodd" d="M17.5 11.9753C17.5 14.7368 15.2617 16.9753 12.5 16.9753C9.73828 16.9753 7.5 14.7368 7.5 11.9753C7.5 9.21387 9.73828 6.97534 12.5 6.97534C15.2617 6.97534 17.5 9.21387 17.5 11.9753ZM14.5 11.9753C14.5 13.0799 13.6045 13.9753 12.5 13.9753C11.3955 13.9753 10.5 13.0799 10.5 11.9753C10.5 10.8707 11.3955 9.97534 12.5 9.97534C13.6045 9.97534 14.5 10.8707 14.5 11.9753Z" fill="#3C3835"/>
<path fill-rule="evenodd" clip-rule="evenodd" d="M12.5 41L1.35938 18.6282C0.490234 16.884 0 14.907 0 12.8125C0 5.7356 5.5957 0 12.5 0C19.4033 0 25 5.7356 25 12.8125C25 14.7944 24.5605 16.6738 23.7754 18.3479C23.7422 18.4199 17.3086 31.3427 14.1758 37.6347L12.5 41ZM21.0518 17.0908L21.0557 17.0825L21.0596 17.0743C21.6602 15.7932 22 14.348 22 12.8125C22 7.32239 17.6768 3 12.5 3C7.32227 3 3 7.3222 3 12.8125C3 14.4344 3.37891 15.9542 4.04492 17.291L12.5 34.2695L21.0518 17.0908Z" fill="#3C3835"/>
</svg>
